<?xml version="1.0" encoding="utf-8"?>
<!-- Generator: Adobe Illustrator 26.0.3, SVG Export Plug-In . SVG Version: 6.00 Build 0)  -->
<svg version="1.0" id="katman_1" xmlns="http://www.w3.org/2000/svg" xmlns:xlink="http://www.w3.org/1999/xlink" x="0px" y="0px"
	 viewBox="0 0 182.3 131.1" style="enable-background:new 0 0 182.3 131.1;" xml:space="preserve">
<style type="text/css">
	.st0{fill-rule:evenodd;clip-rule:evenodd;fill:#FFFFFF;}
	.st1{fill-rule:evenodd;clip-rule:evenodd;fill:#231F20;}
	.st2{fill-rule:evenodd;clip-rule:evenodd;fill:#ED1C24;}
	.st3{fill-rule:evenodd;clip-rule:evenodd;fill:#2E3192;}
</style>
<g id="Layer_2">
	<g id="Layer_1-2">
		<path class="st0" d="M58.2,20.5h66.2c6.6,0.1,11.9,5.4,12,12v66.3c0,6.5-5.4,11.8-11.9,11.7c0,0-0.1,0-0.1,0H58.2
			c-6.6,0.1-12-5.1-12.2-11.7V32.5C46.2,25.9,51.5,20.6,58.2,20.5z"/>
		<polygon class="st1" points="73.6,30.6 81.9,30.4 87.3,29.2 85.4,34.3 87,32.9 88.1,46.1 113.9,46.1 114.1,43.2 91.6,43.2 
			90.8,37.2 91.6,30.8 118.8,30.8 118.8,37.9 115.7,34.3 95.1,34.3 94.5,36.8 94.9,40.1 115.5,40.1 119,42.8 119,54.1 121.7,64.2 
			119.8,70.8 109.1,70.8 110.7,68.1 113.9,67.3 115.3,64.6 111.6,60.9 106.2,68.1 105.6,70.8 95.1,70.8 95.9,67.9 99,67.1 
			106.2,54.9 104.1,56 95.7,59.5 87.3,59.5 84.6,64 87.3,67.9 86.8,70.8 76.3,70.8 76.7,68.1 79.6,66.7 77.1,60.9 71.2,68.1 
			72,70.8 62.3,70.8 63.3,67.7 65.4,66.3 69.7,60.3 67.9,54.7 64.6,56.4 69.7,43.4 68.7,42.4 67,40.7 68.7,38.7 71.8,41.1 
			73.6,38.1 66.2,38.1 66.4,40.1 63.9,40.1 64.4,37.2 73.6,37.2 73.4,35.6 68.5,36.2 66.8,31.9 73.2,31.9 		"/>
		<path class="st2" d="M91.4,23.8h33c4.7,0,8.6,3.8,8.6,8.5c0,0.1,0,0.1,0,0.2v65.9c0,4.6-3.7,8.4-8.3,8.4c-0.1,0-0.2,0-0.3,0h-33
			v-3.3h32c3.5,0,6.4-2.9,6.4-6.4V33.7c-0.1-3.5-2.9-6.3-6.4-6.4h-32L91.4,23.8z M58.4,23.8h33v3.5h-32c-3.5,0.1-6.3,2.9-6.4,6.4
			v63.4c0,3.5,2.9,6.4,6.4,6.4h32v3.3h-33c-4.7,0.2-8.7-3.5-8.9-8.3c0-0.1,0-0.1,0-0.2V32.5C49.5,27.7,53.5,23.8,58.4,23.8
			C58.4,23.9,58.4,23.9,58.4,23.8L58.4,23.8z"/>
		<path class="st2" d="M114.1,86.9c2.4,0,4.3,1.9,4.3,4.3s-1.9,4.3-4.3,4.3v-1.2c1.6,0.1,3-1.1,3.1-2.7c0-0.1,0-0.2,0-0.4
			c0.1-1.7-1.3-3-2.9-3.1c-0.1,0-0.1,0-0.2,0V86.9z M114.1,95.5c-2.4,0-4.3-1.9-4.3-4.3s1.9-4.3,4.3-4.3v1.2l0,0
			c-1.7,0-3,1.4-3.1,3.1c-0.1,1.7,1.3,3,2.9,3.1c0.1,0,0.1,0,0.2,0L114.1,95.5z"/>
		<path class="st2" d="M114.2,84.8c3.5,0,6.4,2.9,6.4,6.4c0,3.5-2.9,6.4-6.4,6.4v-1.2c2.8,0,5.2-2.3,5.2-5.2S117,86,114.2,86V84.8z
			 M114.1,84.8L114.1,84.8l0.1,1.2h-0.1c-2.8,0-5.2,2.3-5.2,5.2s2.3,5.2,5.2,5.2l0,0h0.1v1.2h-0.1c-3.5,0-6.4-2.9-6.4-6.4
			S110.5,84.8,114.1,84.8C114.1,84.8,114.1,84.8,114.1,84.8L114.1,84.8z"/>
		<path class="st2" d="M114.1,82.7c4.7,0,8.4,3.8,8.4,8.4s-3.8,8.4-8.4,8.4v-1.2c4,0,7.2-3.2,7.2-7.2c0-4-3.2-7.2-7.2-7.2
			c0,0,0,0,0,0V82.7z M114.1,99.6c-4.7,0-8.4-3.8-8.4-8.4c0-4.7,3.8-8.4,8.4-8.4c0,0,0,0,0,0V84l0,0c-4,0-7.2,3.2-7.2,7.2
			s3.2,7.2,7.2,7.2V99.6z"/>
		<path class="st3" d="M96.2,99.8h0.5c1.5,0,3-0.5,4.3-1.2c1.8-1.1,2.9-3,3-5.1v-1.5c-0.3-3.5-2.8-7.2-7.8-8.6v4.6
			c3.8,1.9,3.6,7.6,0.3,7.6h-0.3L96.2,99.8z M88.9,85v13c0,0,0.4,1.9,1.8,1.9h5.5v-4.2h-2.8v-8.2c1,0,1.9,0.2,2.8,0.6v-4.6
			c-1.7-0.4-3.5-0.6-5.2-0.5C89.3,83.1,88.9,85,88.9,85L88.9,85z"/>
		<path class="st3" d="M67.5,97.8c0,0.6-0.2,1.2-0.6,1.7c-0.5,0.4-1.2,0.7-1.8,0.8c-0.6,0-1-0.4-1.6-0.8c-0.4-0.5-0.7-1-0.8-1.7
			V85.6c0.1-0.6,0.4-1.2,0.8-1.6c0.4-0.5,1-0.8,1.6-0.8c1.4,0,2.5,1.1,2.5,2.5c0,0.1,0,0.1,0,0.2L67.5,97.8z"/>
		<path class="st3" d="M85.6,97.2c0,0.6-0.2,1.3-0.4,1.8c-0.6,0.4-1,0.8-1.7,0.8c-0.7,0-1.3-0.4-1.6-1l-6.4-8.4v6.8
			c0,0.7-0.2,1.3-0.6,1.8c-0.3,0.5-0.9,0.8-1.4,0.8c-0.7-0.1-1.3-0.4-1.6-1c-0.4-0.5-0.6-1-0.6-1.7v-12c0-0.6,0.2-1.2,0.6-1.7
			c0.3-0.5,0.8-0.9,1.4-0.8c0.9,0,1.6,0.5,2.1,1.2l6,8v-7c0-0.5,0.2-1,0.6-1.4c0.4-0.6,1-0.9,1.6-0.8c0.6,0,1.3,0.3,1.7,0.8
			c0.2,0.4,0.4,0.9,0.4,1.4L85.6,97.2z"/>
		<path class="st3" d="M69.7,79.2h3.9c0.4,0,0.8-0.6,0-1c0-0.2-2.7-0.6-4.1-1.2c-1.2-0.6-1.4-4.3,1.4-4.3h4.1c1.5,0,1.5,1.9,0,2.3
			h-2.9c-0.2,0-0.4,0-0.2,0.4c0.2,0.2,3.3,0.2,4.8,1.8c0.6,0.6,1.2,3.5-2.1,4.1l-5.2,0.2C68.3,81.5,68.5,79.3,69.7,79.2L69.7,79.2z"
			/>
		<path class="st3" d="M86.4,73.7l0.4,3.9c0,2.9-1.8,3.9-4.3,3.9c-2.7-0.2-4.5-1.2-4.1-3.9l0.4-3.9c0.1-0.7,0.7-1.2,1.4-1.1
			c0.6,0.1,1,0.5,1.1,1.1l-0.2,4.7c0.2,0.7,0.9,1.1,1.7,1c0.8,0,1.5-0.4,1.9-1l-0.4-4.7C84.2,72.2,86,72.2,86.4,73.7z"/>
		<path class="st3" d="M91.9,78.1c1.3-0.3,2.8-0.7,3.4-1.8c0.3-0.4,0.5-0.9,0.6-1.4v-0.3c-0.2-1.2-1.2-2-2.4-2.1h-1.6v2.1
			c0.6,0,1.1,0.2,1.1,0.6c0,0.4-0.5,0.7-1.1,0.8V78.1z M88.1,73.7v6.8c0.4,1.2,2.5,1.2,2.7,0v-2.1c0.3-0.1,0.7-0.2,1.1-0.3v-2.1
			c-0.4,0.1-0.7,0.1-1.1,0.1l0,0v-1.4c0.4,0,0.7,0,1.1,0v-2.1h-2.8C88.6,72.7,88.2,73.1,88.1,73.7L88.1,73.7z"/>
		<path class="st3" d="M96.7,74.7v5.3c0,0.8,0.6,1.4,1,1.4h5c1.4,0,1.9-2,0-2h-3.5v-2.1h3.5c1,0,1-1.8,0-1.8h-3.5v-0.8h3.5
			c0.6,0.1,1.2-0.3,1.3-0.9c0.1-0.6-0.3-1.2-0.9-1.3c-0.1,0-0.2,0-0.4,0h-4.4c-1,0-1.6,0.4-1.6,1.2V74.7z"/>
		<path class="st3" d="M109.5,72.6h1.5c2.7,0.2,2.9,1.9,3.1,2.5c-0.1,0.8-0.7,1.5-1.4,1.8c1,1,1.8,2.1,1.8,3.1
			c-0.2,2.1-2.5,1.9-2.5,0.2c-0.3-1.2-1.3-2.1-2.5-2.3v-2h1.3c0.2-0.2,0.6-0.6,0-0.8h-1.3V72.6z M106.2,72.6h3.3v2.5h-1.6v0.8h1.6v2
			c-0.5-0.1-1.1-0.2-1.6-0.2v2.9c-0.2,1.2-2.5,1.2-2.5,0v-7C105.6,73.3,105.9,73,106.2,72.6L106.2,72.6z"/>
	</g>
</g>
</svg>
